<mxfile host="app.diagrams.net" modified="2022-06-22T09:44:43.966Z" agent="5.0 (Windows NT 10.0; Win64; x64) AppleWebKit/537.36 (KHTML, like Gecko) Chrome/102.0.0.0 Safari/537.36" etag="LnJ_TCIHjhkF49e0Qjxp" version="20.0.2" type="github">
  <diagram name="Page-1" id="13e1069c-82ec-6db2-03f1-153e76fe0fe0">
    <mxGraphModel dx="1420" dy="776" grid="1" gridSize="10" guides="1" tooltips="1" connect="1" arrows="1" fold="1" page="1" pageScale="1" pageWidth="1100" pageHeight="850" background="none" math="0" shadow="0">
      <root>
        <mxCell id="0" />
        <mxCell id="1" parent="0" />
        <mxCell id="hThwFxMV4LBkJ5msMD8z-26" value="" style="html=1;points=[];perimeter=orthogonalPerimeter;" vertex="1" parent="1">
          <mxGeometry x="210" y="150" width="10" height="40" as="geometry" />
        </mxCell>
        <mxCell id="hThwFxMV4LBkJ5msMD8z-27" value="0.1 初始化" style="edgeStyle=orthogonalEdgeStyle;html=1;align=left;spacingLeft=2;endArrow=block;rounded=0;entryX=1;entryY=0;" edge="1" target="hThwFxMV4LBkJ5msMD8z-26" parent="1">
          <mxGeometry relative="1" as="geometry">
            <mxPoint x="215" y="130" as="sourcePoint" />
            <Array as="points">
              <mxPoint x="245" y="130" />
            </Array>
          </mxGeometry>
        </mxCell>
        <mxCell id="hThwFxMV4LBkJ5msMD8z-28" value="" style="html=1;points=[];perimeter=orthogonalPerimeter;" vertex="1" parent="1">
          <mxGeometry x="860" y="150" width="10" height="40" as="geometry" />
        </mxCell>
        <mxCell id="hThwFxMV4LBkJ5msMD8z-29" value="0.2 初始化" style="edgeStyle=orthogonalEdgeStyle;html=1;align=left;spacingLeft=2;endArrow=block;rounded=0;entryX=1;entryY=0;" edge="1" parent="1" target="hThwFxMV4LBkJ5msMD8z-28">
          <mxGeometry relative="1" as="geometry">
            <mxPoint x="865" y="130" as="sourcePoint" />
            <Array as="points">
              <mxPoint x="895" y="130" />
            </Array>
          </mxGeometry>
        </mxCell>
        <mxCell id="hThwFxMV4LBkJ5msMD8z-44" value="方向盘" style="shape=umlLifeline;perimeter=lifelinePerimeter;whiteSpace=wrap;html=1;container=1;collapsible=0;recursiveResize=0;outlineConnect=0;" vertex="1" parent="1">
          <mxGeometry x="165" y="80" width="100" height="550" as="geometry" />
        </mxCell>
        <mxCell id="hThwFxMV4LBkJ5msMD8z-47" value="树莓派4B (A)" style="shape=umlLifeline;perimeter=lifelinePerimeter;whiteSpace=wrap;html=1;container=1;collapsible=0;recursiveResize=0;outlineConnect=0;" vertex="1" parent="1">
          <mxGeometry x="295" y="80" width="100" height="550" as="geometry" />
        </mxCell>
        <mxCell id="hThwFxMV4LBkJ5msMD8z-61" value="" style="html=1;points=[];perimeter=orthogonalPerimeter;" vertex="1" parent="hThwFxMV4LBkJ5msMD8z-47">
          <mxGeometry x="45" y="260" width="10" height="80" as="geometry" />
        </mxCell>
        <mxCell id="hThwFxMV4LBkJ5msMD8z-77" value="" style="html=1;points=[];perimeter=orthogonalPerimeter;" vertex="1" parent="hThwFxMV4LBkJ5msMD8z-47">
          <mxGeometry x="48" y="439" width="10" height="30" as="geometry" />
        </mxCell>
        <mxCell id="hThwFxMV4LBkJ5msMD8z-49" value="5G通信模块 (A)" style="shape=umlLifeline;perimeter=lifelinePerimeter;whiteSpace=wrap;html=1;container=1;collapsible=0;recursiveResize=0;outlineConnect=0;" vertex="1" parent="1">
          <mxGeometry x="420" y="80" width="100" height="550" as="geometry" />
        </mxCell>
        <mxCell id="hThwFxMV4LBkJ5msMD8z-51" value="5G通信模块 (B)" style="shape=umlLifeline;perimeter=lifelinePerimeter;whiteSpace=wrap;html=1;container=1;collapsible=0;recursiveResize=0;outlineConnect=0;" vertex="1" parent="1">
          <mxGeometry x="560" y="80" width="100" height="550" as="geometry" />
        </mxCell>
        <mxCell id="hThwFxMV4LBkJ5msMD8z-53" value="树莓派4B (B)" style="shape=umlLifeline;perimeter=lifelinePerimeter;whiteSpace=wrap;html=1;container=1;collapsible=0;recursiveResize=0;outlineConnect=0;" vertex="1" parent="1">
          <mxGeometry x="685" y="80" width="100" height="550" as="geometry" />
        </mxCell>
        <mxCell id="hThwFxMV4LBkJ5msMD8z-62" value="" style="html=1;points=[];perimeter=orthogonalPerimeter;" vertex="1" parent="hThwFxMV4LBkJ5msMD8z-53">
          <mxGeometry x="45" y="300" width="10" height="60" as="geometry" />
        </mxCell>
        <mxCell id="hThwFxMV4LBkJ5msMD8z-74" value="" style="html=1;points=[];perimeter=orthogonalPerimeter;" vertex="1" parent="hThwFxMV4LBkJ5msMD8z-53">
          <mxGeometry x="48" y="439" width="10" height="30" as="geometry" />
        </mxCell>
        <mxCell id="hThwFxMV4LBkJ5msMD8z-83" value="" style="html=1;points=[];perimeter=orthogonalPerimeter;" vertex="1" parent="hThwFxMV4LBkJ5msMD8z-53">
          <mxGeometry x="48" y="499" width="10" height="20" as="geometry" />
        </mxCell>
        <mxCell id="hThwFxMV4LBkJ5msMD8z-84" value="3.5 关闭服务监听接口" style="edgeStyle=orthogonalEdgeStyle;html=1;align=left;spacingLeft=2;endArrow=block;rounded=0;entryX=1;entryY=0;" edge="1" target="hThwFxMV4LBkJ5msMD8z-83" parent="hThwFxMV4LBkJ5msMD8z-53">
          <mxGeometry x="0.0667" y="5" relative="1" as="geometry">
            <mxPoint x="53" y="479" as="sourcePoint" />
            <Array as="points">
              <mxPoint x="83" y="479" />
            </Array>
            <mxPoint as="offset" />
          </mxGeometry>
        </mxCell>
        <mxCell id="hThwFxMV4LBkJ5msMD8z-55" value="底盘" style="shape=umlLifeline;perimeter=lifelinePerimeter;whiteSpace=wrap;html=1;container=1;collapsible=0;recursiveResize=0;outlineConnect=0;" vertex="1" parent="1">
          <mxGeometry x="815" y="80" width="105" height="550" as="geometry" />
        </mxCell>
        <mxCell id="hThwFxMV4LBkJ5msMD8z-30" value="1.建立连接" style="shape=umlFrame;whiteSpace=wrap;html=1;" vertex="1" parent="hThwFxMV4LBkJ5msMD8z-55">
          <mxGeometry x="-675" y="120" width="780" height="80" as="geometry" />
        </mxCell>
        <mxCell id="hThwFxMV4LBkJ5msMD8z-32" value="" style="html=1;points=[];perimeter=orthogonalPerimeter;" vertex="1" parent="hThwFxMV4LBkJ5msMD8z-55">
          <mxGeometry x="-85" y="140" width="10" height="20" as="geometry" />
        </mxCell>
        <mxCell id="hThwFxMV4LBkJ5msMD8z-33" value="1.1 服务监听" style="edgeStyle=orthogonalEdgeStyle;html=1;align=left;spacingLeft=2;endArrow=block;rounded=0;entryX=1;entryY=0;" edge="1" parent="hThwFxMV4LBkJ5msMD8z-55" target="hThwFxMV4LBkJ5msMD8z-32">
          <mxGeometry relative="1" as="geometry">
            <mxPoint x="-80" y="130" as="sourcePoint" />
            <Array as="points">
              <mxPoint x="-50" y="130" />
            </Array>
          </mxGeometry>
        </mxCell>
        <mxCell id="hThwFxMV4LBkJ5msMD8z-34" value="" style="html=1;points=[];perimeter=orthogonalPerimeter;" vertex="1" parent="hThwFxMV4LBkJ5msMD8z-55">
          <mxGeometry x="-85" y="170" width="10" height="20" as="geometry" />
        </mxCell>
        <mxCell id="hThwFxMV4LBkJ5msMD8z-35" value="1.2 发送连接请求" style="html=1;verticalAlign=bottom;endArrow=block;entryX=0;entryY=0;rounded=0;exitX=1.1;exitY=0;exitDx=0;exitDy=0;exitPerimeter=0;" edge="1" target="hThwFxMV4LBkJ5msMD8z-34" parent="hThwFxMV4LBkJ5msMD8z-55" source="hThwFxMV4LBkJ5msMD8z-37">
          <mxGeometry relative="1" as="geometry">
            <mxPoint x="-155" y="170" as="sourcePoint" />
          </mxGeometry>
        </mxCell>
        <mxCell id="hThwFxMV4LBkJ5msMD8z-36" value="1.3 成功收到建立连接请求后反馈" style="html=1;verticalAlign=bottom;endArrow=open;dashed=1;endSize=8;exitX=0;exitY=0.95;rounded=0;" edge="1" source="hThwFxMV4LBkJ5msMD8z-34" parent="hThwFxMV4LBkJ5msMD8z-55" target="hThwFxMV4LBkJ5msMD8z-37">
          <mxGeometry relative="1" as="geometry">
            <mxPoint x="-155" y="246" as="targetPoint" />
          </mxGeometry>
        </mxCell>
        <mxCell id="hThwFxMV4LBkJ5msMD8z-37" value="" style="html=1;points=[];perimeter=orthogonalPerimeter;" vertex="1" parent="hThwFxMV4LBkJ5msMD8z-55">
          <mxGeometry x="-475" y="170" width="10" height="20" as="geometry" />
        </mxCell>
        <mxCell id="hThwFxMV4LBkJ5msMD8z-57" value="2.1 发送传感器数据" style="html=1;verticalAlign=bottom;endArrow=block;rounded=0;" edge="1" parent="1" source="hThwFxMV4LBkJ5msMD8z-44" target="hThwFxMV4LBkJ5msMD8z-47">
          <mxGeometry width="80" relative="1" as="geometry">
            <mxPoint x="510" y="300" as="sourcePoint" />
            <mxPoint x="590" y="300" as="targetPoint" />
            <Array as="points">
              <mxPoint x="320" y="320" />
            </Array>
          </mxGeometry>
        </mxCell>
        <mxCell id="hThwFxMV4LBkJ5msMD8z-58" value="2.1 将数据进行压缩、编码后发送" style="html=1;verticalAlign=bottom;endArrow=block;rounded=0;" edge="1" parent="1" source="hThwFxMV4LBkJ5msMD8z-47" target="hThwFxMV4LBkJ5msMD8z-49">
          <mxGeometry width="80" relative="1" as="geometry">
            <mxPoint x="510" y="300" as="sourcePoint" />
            <mxPoint x="590" y="300" as="targetPoint" />
            <Array as="points">
              <mxPoint x="400" y="340" />
            </Array>
          </mxGeometry>
        </mxCell>
        <mxCell id="hThwFxMV4LBkJ5msMD8z-59" value="2.2 传输信息" style="html=1;verticalAlign=bottom;endArrow=block;rounded=0;" edge="1" parent="1" source="hThwFxMV4LBkJ5msMD8z-49" target="hThwFxMV4LBkJ5msMD8z-51">
          <mxGeometry width="80" relative="1" as="geometry">
            <mxPoint x="354.5" y="350" as="sourcePoint" />
            <mxPoint x="479.5" y="350" as="targetPoint" />
            <Array as="points">
              <mxPoint x="500" y="350" />
            </Array>
          </mxGeometry>
        </mxCell>
        <mxCell id="hThwFxMV4LBkJ5msMD8z-60" value="2.3 解压缩，转换成控制信号" style="html=1;verticalAlign=bottom;endArrow=block;rounded=0;" edge="1" parent="1" source="hThwFxMV4LBkJ5msMD8z-51" target="hThwFxMV4LBkJ5msMD8z-53">
          <mxGeometry width="80" relative="1" as="geometry">
            <mxPoint x="610" y="360" as="sourcePoint" />
            <mxPoint x="730" y="360" as="targetPoint" />
            <Array as="points">
              <mxPoint x="620" y="380" />
              <mxPoint x="660" y="380" />
            </Array>
          </mxGeometry>
        </mxCell>
        <mxCell id="hThwFxMV4LBkJ5msMD8z-63" value="2.4 反馈正确收到信息" style="html=1;verticalAlign=bottom;endArrow=open;dashed=1;endSize=8;rounded=0;" edge="1" parent="1" target="hThwFxMV4LBkJ5msMD8z-47">
          <mxGeometry relative="1" as="geometry">
            <mxPoint x="730" y="420" as="sourcePoint" />
            <mxPoint x="510" y="300" as="targetPoint" />
            <Array as="points">
              <mxPoint x="350" y="420" />
            </Array>
          </mxGeometry>
        </mxCell>
        <mxCell id="hThwFxMV4LBkJ5msMD8z-64" value="发送控制信号" style="html=1;verticalAlign=bottom;endArrow=block;rounded=0;" edge="1" parent="1" target="hThwFxMV4LBkJ5msMD8z-55">
          <mxGeometry width="80" relative="1" as="geometry">
            <mxPoint x="735" y="440" as="sourcePoint" />
            <mxPoint x="815" y="440" as="targetPoint" />
          </mxGeometry>
        </mxCell>
        <mxCell id="hThwFxMV4LBkJ5msMD8z-65" value="2.控制" style="shape=umlFrame;whiteSpace=wrap;html=1;" vertex="1" parent="1">
          <mxGeometry x="140" y="300" width="780" height="160" as="geometry" />
        </mxCell>
        <mxCell id="hThwFxMV4LBkJ5msMD8z-75" value="3.2 断开连接请求" style="html=1;verticalAlign=bottom;endArrow=block;entryX=0;entryY=0;rounded=0;" edge="1" target="hThwFxMV4LBkJ5msMD8z-74" parent="1">
          <mxGeometry relative="1" as="geometry">
            <mxPoint x="347.5" y="519" as="sourcePoint" />
          </mxGeometry>
        </mxCell>
        <mxCell id="hThwFxMV4LBkJ5msMD8z-76" value="3.3 成功收到断开请求后反馈" style="html=1;verticalAlign=bottom;endArrow=open;dashed=1;endSize=8;exitX=0;exitY=0.95;rounded=0;" edge="1" source="hThwFxMV4LBkJ5msMD8z-74" parent="1">
          <mxGeometry relative="1" as="geometry">
            <mxPoint x="347.5" y="547.5" as="targetPoint" />
          </mxGeometry>
        </mxCell>
        <mxCell id="hThwFxMV4LBkJ5msMD8z-78" value="3.4 关闭方向盘" style="html=1;verticalAlign=bottom;endArrow=open;dashed=1;endSize=8;rounded=0;" edge="1" parent="1">
          <mxGeometry relative="1" as="geometry">
            <mxPoint x="347.5" y="569" as="sourcePoint" />
            <mxPoint x="218" y="569" as="targetPoint" />
          </mxGeometry>
        </mxCell>
        <mxCell id="hThwFxMV4LBkJ5msMD8z-79" value="3.6 关闭底盘" style="html=1;verticalAlign=bottom;endArrow=block;rounded=0;" edge="1" parent="1">
          <mxGeometry width="80" relative="1" as="geometry">
            <mxPoint x="738" y="599" as="sourcePoint" />
            <mxPoint x="870" y="599" as="targetPoint" />
          </mxGeometry>
        </mxCell>
        <mxCell id="hThwFxMV4LBkJ5msMD8z-85" value="3.1 系统关闭请求" style="html=1;verticalAlign=bottom;endArrow=block;rounded=0;" edge="1" parent="1">
          <mxGeometry width="80" relative="1" as="geometry">
            <mxPoint x="218" y="500" as="sourcePoint" />
            <mxPoint x="347.5" y="500" as="targetPoint" />
          </mxGeometry>
        </mxCell>
        <mxCell id="hThwFxMV4LBkJ5msMD8z-86" value="3.系统关闭" style="shape=umlFrame;whiteSpace=wrap;html=1;" vertex="1" parent="1">
          <mxGeometry x="140" y="480" width="780" height="120" as="geometry" />
        </mxCell>
      </root>
    </mxGraphModel>
  </diagram>
</mxfile>
